<svg xmlns="http://www.w3.org/2000/svg" xmlns:xlink="http://www.w3.org/1999/xlink" width="114" height="105" viewBox="0 0 114 105"><defs><path id="vpl8a" d="M523.86 3310.06a2.2 2.2 0 0 1-2.38 2.01c-12.76-1.1-24.46-4.48-32.95-9.5-9.02-5.33-13.98-12.27-13.98-19.55 0-3.76 1.29-7.4 3.83-10.83a2.2 2.2 0 1 1 3.54 2.63c-1.97 2.65-2.96 5.41-2.96 8.2 0 11.94 18.44 22.54 42.9 24.65a2.2 2.2 0 0 1 2 2.4zm9.82.2a2.2 2.2 0 0 1-2.2 2.22H531.36a2.2 2.2 0 0 1-.01-4.42h.13c1.21 0 2.2 1 2.2 2.2zm53.62-27.24c0 7.28-4.96 14.22-13.97 19.55-8.5 5.02-20.2 8.4-32.96 9.5l-.2.01a2.2 2.2 0 0 1-.18-4.4c24.46-2.12 42.91-12.72 42.91-24.66 0-1.95-.49-3.88-1.45-5.77a2.2 2.2 0 0 1-3.8-1.52v-4.45c0-1.22 1-2.2 2.2-2.2h4.44a2.2 2.2 0 0 1 .08 4.4 17.53 17.53 0 0 1 2.93 9.54zm-58.57-54.5a2.2 2.2 0 1 1 4.4 0v4.8a2.2 2.2 0 1 1-4.4 0zm-36.8 45.88v-42.59c0-.79.42-1.51 1.1-1.9l36.8-21.3a2.2 2.2 0 0 1 2.2 0l36.8 21.3a2.2 2.2 0 0 1 1.1 1.9v42.59a2.2 2.2 0 0 1-1.1 1.9l-36.8 21.3a2.2 2.2 0 0 1-2.2 0l-36.8-21.3a2.2 2.2 0 0 1-1.1-1.9zm36.8-57.55v-2.5l-30.2 17.46 30.2 17.5v-4.32a2.2 2.2 0 1 1 4.4 0v4.31l30.2-17.49-30.2-17.47v2.51a2.2 2.2 0 1 1-4.4 0zm36.8 18.79l-30.18 17.48 3.78 2.18a2.2 2.2 0 0 1-2.2 3.83l-3.8-2.2v34.94l30.19-17.47-2.08-1.2a2.21 2.21 0 0 1 2.2-3.83l2.08 1.2zm-69.2 0v34.93l2.09-1.2a2.21 2.21 0 0 1 2.2 3.82l-2.08 1.2 30.19 17.48v-34.94l-3.8 2.2a2.2 2.2 0 0 1-3.01-.81 2.2 2.2 0 0 1 .8-3.02l3.79-2.18zm49.87 26.3a2.2 2.2 0 0 1 3-.8l4.17 2.4a2.21 2.21 0 0 1-2.2 3.82l-4.17-2.4a2.21 2.21 0 0 1-.8-3.02zm-38.52 4.62c-.6-1.06-.24-2.4.8-3.02l4.17-2.4a2.21 2.21 0 0 1 2.2 3.82l-4.16 2.4a2.2 2.2 0 0 1-3-.8z"/></defs><g><g transform="translate(-474 -3208)"><use xlink:href="#vpl8a"/><use fill="#fff" xlink:href="#vpl8a"/></g></g></svg>