<svg xmlns="http://www.w3.org/2000/svg" xmlns:xlink="http://www.w3.org/1999/xlink" width="113" height="110" viewBox="0 0 113 110"><defs><path id="m186a" d="M875.95 3266.8v30.07c0 .8-.44 1.54-1.14 1.93l-5.56 3.1a2.2 2.2 0 1 1-2.13-3.86l4.42-2.47v-25.03l-22.68 12.6v25.02l3.05-1.69a2.2 2.2 0 0 1 2.13 3.86l-6.31 3.51a2.2 2.2 0 0 1-2.14 0l-26.02-14.45-26.02 14.45a2.2 2.2 0 0 1-2.13 0l-27.1-15.04a2.2 2.2 0 0 1-1.13-1.93v-30.08c0-.8.44-1.54 1.14-1.93l25.98-14.42v-28.77c0-.8.43-1.54 1.13-1.93l27.1-15.04a2.2 2.2 0 0 1 2.13 0l27.08 15.04a2.2 2.2 0 0 1 1.14 1.93v28.8l25.92 14.4a2.2 2.2 0 0 1 1.14 1.92zm-6.75 0l-22.53-12.52-22.54 12.52 22.53 12.5zm-74.49-41.38v25.03l22.69 12.6v-9.59a2.2 2.2 0 1 1 4.4 0v9.57l22.68-12.6v-25.01l-23.81 13.22a2.2 2.2 0 0 1-2.14 0zm-24.77 41.37l22.54 12.52 22.55-12.52-22.55-12.52zm24.75 41.37l22.68-12.59v-25.03l-22.68 12.6zm2.37-86.49l22.54 12.52 22.54-12.52-22.54-12.51zm-29.46 73.9l22.68 12.6v-25.04l-22.68-12.6zm54.17 0l22.69 12.6v-25.04l-22.69-12.6zm40.83 6.8a2.22 2.22 0 0 1 0 3.11 2.21 2.21 0 0 1-3.11 0 2.23 2.23 0 0 1 0-3.12 2.2 2.2 0 0 1 3.11 0zm-44.56-55.11a2.22 2.22 0 0 1 0-3.12 2.22 2.22 0 0 1 3.12 0 2.23 2.23 0 0 1 0 3.12c-.41.4-.98.65-1.56.65-.58 0-1.15-.24-1.56-.65z"/></defs><g><g transform="translate(-763 -3204)"><use xlink:href="#m186a"/><use fill="#fff" xlink:href="#m186a"/></g></g></svg>