<svg xmlns="http://www.w3.org/2000/svg" xmlns:xlink="http://www.w3.org/1999/xlink" width="113" height="105" viewBox="0 0 113 105"><defs><path id="ukbda" d="M1343.55 3226.93a9.35 9.35 0 0 1-9.32-9.36v-.79a9.35 9.35 0 0 1 9.32-9.35h64.52a2.2 2.2 0 0 1 0 4.42h-64.52a4.93 4.93 0 0 0-4.92 4.93v.8c0 2.71 2.2 4.93 4.92 4.93h8.5a2.2 2.2 0 0 1 0 4.42zm17.27-.05a2.2 2.2 0 1 1 .87-4.32 2.2 2.2 0 0 1-.87 4.32zm58.19 28.45a28.05 28.05 0 0 1 27.97 28.07 28.05 28.05 0 0 1-27.97 28.07 27.94 27.94 0 0 1-23.98-13.62h-7.25a27.94 27.94 0 0 1-23.98 13.62 28.05 28.05 0 0 1-27.98-28.07 28.05 28.05 0 0 1 27.98-28.07h16.38c.04-5.4 3.9-9.92 9-10.96a9.1 9.1 0 0 1 8.94-7.57h30.92a4.93 4.93 0 0 0 0-9.87h-59.24a2.2 2.2 0 0 1 0-4.42h59.24a9.35 9.35 0 0 1 0 18.7h-30.92a4.68 4.68 0 0 0-4.42 3.18 11.27 11.27 0 0 1 8.93 10.94zm0 51.72c13 0 23.57-10.61 23.57-23.65a23.63 23.63 0 0 0-23.57-23.65h-18.59a2.2 2.2 0 0 1-2.2-2.2v-2.14a6.84 6.84 0 0 0-6.82-6.84 6.84 6.84 0 0 0-6.82 6.76h6.82a2.2 2.2 0 0 1 0 4.42h-27.6c-13 0-23.57 10.61-23.57 23.65a23.64 23.64 0 0 0 23.57 23.65c8.68 0 16.64-4.78 20.76-12.46a2.2 2.2 0 0 1 1.94-1.16h9.8c.82 0 1.56.45 1.94 1.16a23.55 23.55 0 0 0 20.77 12.46zm-61.03-9.74a2.2 2.2 0 0 1-2.2-2.2v-4.74h-4.72a2.2 2.2 0 0 1-2.2-2.21v-9.6a2.2 2.2 0 0 1 2.2-2.2h4.72v-4.74a2.2 2.2 0 0 1 2.2-2.2h9.56c1.22 0 2.2.98 2.2 2.2v4.74h4.72c1.22 0 2.2.99 2.2 2.2v9.6a2.2 2.2 0 0 1-2.2 2.2h-4.72v4.74a2.2 2.2 0 0 1-2.2 2.21zm2.2-4.42h5.16v-4.73a2.2 2.2 0 0 1 2.2-2.21h4.72v-5.17h-4.72a2.2 2.2 0 0 1-2.2-2.21v-4.74h-5.16v4.74a2.2 2.2 0 0 1-2.2 2.2h-4.72v5.18h4.72c1.22 0 2.2.99 2.2 2.2zm61.85-8.8a8.43 8.43 0 0 1-2.48-5.99 8.43 8.43 0 0 1 14.42-6 8.43 8.43 0 0 1 2.48 6 8.43 8.43 0 0 1-14.42 6zm3.11-8.86a4.03 4.03 0 0 0 0 5.74 4.04 4.04 0 0 0 6.9-2.87 4.03 4.03 0 0 0-6.9-2.87zm-16.64 22.44a8.43 8.43 0 0 1-2.47-6 8.43 8.43 0 1 1 16.9 0 8.43 8.43 0 0 1-14.43 6zm3.12-8.87a4.04 4.04 0 0 0 0 5.74 4.04 4.04 0 0 0 6.9-2.87 4.03 4.03 0 0 0-6.9-2.87zm-32.26-13.21a2.2 2.2 0 0 1-2.2-2.21v-8.13a2.2 2.2 0 0 1 2.2-2.21h24.09c1.21 0 2.2.99 2.2 2.2v8.14a2.2 2.2 0 0 1-2.2 2.21zm2.2-4.42h19.68v-3.71h-19.68z"/></defs><g><g transform="translate(-1334 -3207)"><use xlink:href="#ukbda"/><use fill="#fff" xlink:href="#ukbda"/></g></g></svg>